<?xml version="1.0" encoding="UTF-8" standalone="no"?>
<!-- Created with Inkscape (http://www.inkscape.org/) -->

<svg
   xmlns:svg="http://www.w3.org/2000/svg"
   xmlns="http://www.w3.org/2000/svg"
   version="1.1"
   width="204"
   height="180"
   id="svg2974">
  <defs
     id="defs2978" />
  <path
     d="M 72.717006,151.73743 C 60.832357,147.28922 57.555256,144.52815 50.050876,132.64045 41.922345,119.76403 41.633535,97.244362 49.352477,78.184054 58.724839,55.040977 62.29615,48.671528 70.499571,40.468107 74.899652,36.068025 78.49972,31.97479 78.49972,31.37203 c 0,-0.602758 -3.367077,-1.835461 -7.482397,-2.739337 -12.014322,-2.638788 -4.430369,-6.666242 11.85955,-6.298008 18.937837,0.428088 41.407247,8.442721 53.703097,19.155393 22.94834,19.99359 31.25568,34.64943 27.48409,48.487494 -0.94679,3.473717 -2.03886,8.746199 -2.42684,11.716628 -1.16225,8.89839 -13.59584,29.6245 -20.88571,34.81533 -9.93414,7.07374 -33.55646,15.81616 -46.975256,17.38513 -7.449623,0.87104 -15.047868,0.0927 -21.059248,-2.15723 z m 45.937034,-16.04965 c 16.62517,-8.25136 24.65462,-16.73569 29.86321,-31.55504 2.65899,-7.565322 4.83453,-16.46563 4.83453,-19.778463 0,-7.959327 -8.38219,-22.637942 -17.70112,-30.997529 C 121.20328,40.396605 87.44445,27.663657 88.893707,35.721244 c 0.259401,1.44221 -1.502286,2.459212 -3.914857,2.260009 -2.412569,-0.199204 -3.849654,0.174647 -3.19352,0.830785 0.656136,0.656133 -2.375827,6.795211 -6.73769,13.642392 -8.196103,12.866101 -16.853186,35.036167 -19.519812,49.98861 -2.542708,14.25759 7.726148,33.66839 20.815446,39.3466 6.157912,2.67133 32.201726,-1.08459 42.310766,-6.10186 z"
     id="path2986"
     style="fill:#000000" />
</svg>
